<svg version="1.1" id="Layer_1" xmlns="http://www.w3.org/2000/svg" xmlns:xlink="http://www.w3.org/1999/xlink" x="0px" y="0px"
	 width="100%" viewBox="0 0 225 225" enable-background="new 0 0 225 225" xml:space="preserve">
<path fill="#010101" opacity="1.000000" stroke="none" 
	d="
M134.000000,226.000000 
	C89.333336,226.000000 45.166672,226.000000 1.000006,226.000000 
	C1.000004,151.000000 1.000004,76.000015 1.000002,1.000016 
	C75.999992,1.000011 150.999985,1.000011 225.999969,1.000005 
	C225.999985,75.999985 225.999985,150.999969 226.000000,225.999969 
	C195.500000,226.000000 165.000000,226.000000 134.000000,226.000000 
M57.072769,22.983047 
	C57.072216,26.645161 57.034763,30.307730 57.079941,33.969276 
	C57.144337,39.188015 58.692204,40.769295 63.938545,40.816498 
	C70.762817,40.877895 77.588066,40.831787 84.412888,40.831795 
	C111.046349,40.831825 137.679825,40.843601 164.313278,40.822586 
	C170.184097,40.817955 171.726395,39.272858 171.783447,33.517796 
	C171.818085,30.022503 171.829498,26.525974 171.777527,23.031096 
	C171.717255,18.977655 169.708267,17.018963 165.548615,17.023941 
	C131.424530,17.064783 97.300392,17.057781 63.176285,17.031096 
	C59.652279,17.028339 57.439964,18.388435 57.072769,22.983047 
M115.500000,90.002792 
	C98.363083,90.002945 81.226135,89.988396 64.089249,90.011581 
	C58.448242,90.019218 57.121498,91.392097 57.074978,97.086349 
	C57.050514,100.080948 57.060032,103.075966 57.072857,106.070717 
	C57.099384,112.263611 58.495548,113.721947 64.630989,113.729950 
	C83.431679,113.754471 102.232422,113.739250 121.033150,113.739357 
	C135.508041,113.739433 149.983017,113.766235 164.457809,113.726067 
	C170.256332,113.709976 171.733505,112.150864 171.786102,106.276527 
	C171.812912,103.281960 171.814346,100.286728 171.785812,97.292191 
	C171.729706,91.404633 170.341553,90.014656 164.416901,90.008461 
	C148.444611,89.991768 132.472305,90.002777 115.500000,90.002792 
M124.500267,53.505436 
	C104.343903,53.505981 84.187492,53.480789 64.031219,53.523930 
	C58.520260,53.535725 57.162086,54.921547 57.088242,60.248127 
	C57.039749,63.745670 57.153725,67.246422 57.060249,70.742142 
	C56.943554,75.106064 58.801998,77.059044 63.329330,77.047516 
	C97.311775,76.961060 131.294739,76.945091 165.276993,77.062805 
	C170.126312,77.079597 171.884888,74.909706 171.792053,70.436058 
	C171.729874,67.438873 171.790298,64.439323 171.778458,61.440899 
	C171.751999,54.744595 170.593338,53.529514 163.980637,53.514191 
	C151.153915,53.484474 138.327072,53.505436 124.500267,53.505436 
M77.143166,208.725128 
	C79.473190,202.892471 81.803215,197.059799 84.133232,191.227142 
	C84.522316,191.332565 84.911400,191.437988 85.300484,191.543396 
	C85.300484,198.474792 85.300484,205.406189 85.300484,212.473816 
	C87.632286,212.473816 89.517113,212.473816 91.459213,212.473816 
	C91.459213,200.587509 91.459213,189.012115 91.459213,177.472961 
	C83.683311,176.716110 83.688889,176.718201 81.199425,183.355728 
	C78.753380,189.877487 76.294426,196.394409 73.480316,203.872238 
	C70.567841,196.115601 68.091293,189.439331 65.554268,182.786133 
	C63.062874,176.252579 62.668732,176.083801 55.541901,177.834808 
	C55.541901,189.426926 55.541901,200.994476 55.541901,212.530731 
	C57.695545,212.530731 59.466442,212.530731 61.494781,212.530731 
	C61.494781,205.193253 61.494781,198.103363 61.494781,191.013458 
	C65.105331,196.936005 67.435081,203.191711 70.058861,209.321548 
	C70.648941,210.700134 72.251099,212.515030 73.414093,212.534531 
	C74.578850,212.554062 75.777084,210.578568 77.143166,208.725128 
M144.179413,212.772354 
	C144.860840,211.910797 146.105469,211.065796 146.131348,210.184952 
	C146.287659,204.865967 146.352112,199.529510 146.089569,194.216599 
	C145.744385,187.231598 140.410294,184.019302 133.852036,186.633820 
	C132.685104,187.099014 131.589172,187.742325 130.460449,188.303391 
	C130.495895,187.843063 130.531342,187.382751 130.566788,186.922424 
	C128.678894,186.614563 126.791000,186.306686 124.648544,185.957306 
	C124.648544,195.293579 124.648544,203.868912 124.648544,212.467072 
	C126.682846,212.467072 128.416000,212.467072 130.518738,212.467072 
	C130.518738,206.695312 130.459534,201.225342 130.540710,195.757462 
	C130.590256,192.420242 132.750275,191.097672 135.774078,191.052322 
	C138.929230,191.005020 140.140488,192.854950 140.108231,195.848694 
	C140.058014,200.507828 140.218109,205.172134 140.053696,209.825943 
	C139.963287,212.385117 141.089035,213.068466 144.179413,212.772354 
M109.682487,201.918686 
	C113.101738,201.918686 116.520988,201.918686 119.897430,201.918686 
	C120.335403,192.241562 117.422531,187.048767 111.402199,186.070694 
	C104.694984,184.981033 99.294228,188.467392 97.429947,195.090210 
	C95.381279,202.368027 98.202332,209.422577 104.183250,211.978027 
	C110.085030,214.499664 116.059265,212.867493 119.219284,207.870209 
	C117.856934,205.396194 116.508018,205.175598 113.867821,206.774597 
	C109.083992,209.671860 105.258347,207.768600 103.312790,201.918686 
	C105.202911,201.918686 106.980408,201.918686 109.682487,201.918686 
M168.277618,212.387115 
	C169.994156,212.492874 171.710693,212.598618 173.492035,212.708374 
	C173.492035,203.538483 173.492035,194.972900 173.492035,186.437531 
	C171.444183,186.437531 169.706833,186.437531 167.684113,186.437531 
	C167.684113,191.870056 167.570694,197.013275 167.721619,202.148758 
	C167.833328,205.949600 165.889862,207.757294 162.425934,207.918213 
	C158.579575,208.096863 157.879303,205.458557 157.922318,202.263290 
	C157.993210,196.997925 157.941574,191.730911 157.941574,186.448761 
	C155.633835,186.448761 153.910385,186.448761 151.897461,186.448761 
	C151.897461,192.545883 151.742645,198.346329 151.936340,204.135101 
	C152.182861,211.502914 157.786575,214.930450 164.774475,212.254974 
	C165.778854,211.870407 166.909821,211.816513 168.277618,212.387115 
z"/>
<path fill="#FBFBFB" opacity="1.000000" stroke="none" 
	d="
M57.075417,22.536472 
	C57.439964,18.388435 59.652279,17.028339 63.176285,17.031096 
	C97.300392,17.057781 131.424530,17.064783 165.548615,17.023941 
	C169.708267,17.018963 171.717255,18.977655 171.777527,23.031096 
	C171.829498,26.525974 171.818085,30.022503 171.783447,33.517796 
	C171.726395,39.272858 170.184097,40.817955 164.313278,40.822586 
	C137.679825,40.843601 111.046349,40.831825 84.412888,40.831795 
	C77.588066,40.831787 70.762817,40.877895 63.938545,40.816498 
	C58.692204,40.769295 57.144337,39.188015 57.079941,33.969276 
	C57.034763,30.307730 57.072216,26.645161 57.075417,22.536472 
z"/>
<path fill="#FAFAFA" opacity="1.000000" stroke="none" 
	d="
M116.000000,90.002792 
	C132.472305,90.002777 148.444611,89.991768 164.416901,90.008461 
	C170.341553,90.014656 171.729706,91.404633 171.785812,97.292191 
	C171.814346,100.286728 171.812912,103.281960 171.786102,106.276527 
	C171.733505,112.150864 170.256332,113.709976 164.457809,113.726067 
	C149.983017,113.766235 135.508041,113.739433 121.033150,113.739357 
	C102.232422,113.739250 83.431679,113.754471 64.630989,113.729950 
	C58.495548,113.721947 57.099384,112.263611 57.072857,106.070717 
	C57.060032,103.075966 57.050514,100.080948 57.074978,97.086349 
	C57.121498,91.392097 58.448242,90.019218 64.089249,90.011581 
	C81.226135,89.988396 98.363083,90.002945 116.000000,90.002792 
z"/>
<path fill="#FEFEFE" opacity="1.000000" stroke="none" 
	d="
M125.000275,53.505417 
	C138.327072,53.505436 151.153915,53.484474 163.980637,53.514191 
	C170.593338,53.529514 171.751999,54.744595 171.778458,61.440899 
	C171.790298,64.439323 171.729874,67.438873 171.792053,70.436058 
	C171.884888,74.909706 170.126312,77.079597 165.276993,77.062805 
	C131.294739,76.945091 97.311775,76.961060 63.329330,77.047516 
	C58.801998,77.059044 56.943554,75.106064 57.060249,70.742142 
	C57.153725,67.246422 57.039749,63.745670 57.088242,60.248127 
	C57.162086,54.921547 58.520260,53.535725 64.031219,53.523930 
	C84.187492,53.480789 104.343903,53.505981 125.000275,53.505417 
z"/>
<path fill="#ECECEC" opacity="1.000000" stroke="none" 
	d="
M77.051910,209.101318 
	C75.777084,210.578568 74.578850,212.554062 73.414093,212.534531 
	C72.251099,212.515030 70.648941,210.700134 70.058861,209.321548 
	C67.435081,203.191711 65.105331,196.936005 61.494781,191.013458 
	C61.494781,198.103363 61.494781,205.193253 61.494781,212.530731 
	C59.466442,212.530731 57.695545,212.530731 55.541901,212.530731 
	C55.541901,200.994476 55.541901,189.426926 55.541901,177.834808 
	C62.668732,176.083801 63.062874,176.252579 65.554268,182.786133 
	C68.091293,189.439331 70.567841,196.115601 73.480316,203.872238 
	C76.294426,196.394409 78.753380,189.877487 81.199425,183.355728 
	C83.688889,176.718201 83.683311,176.716110 91.459213,177.472961 
	C91.459213,189.012115 91.459213,200.587509 91.459213,212.473816 
	C89.517113,212.473816 87.632286,212.473816 85.300484,212.473816 
	C85.300484,205.406189 85.300484,198.474792 85.300484,191.543396 
	C84.911400,191.437988 84.522316,191.332565 84.133232,191.227142 
	C81.803215,197.059799 79.473190,202.892471 77.051910,209.101318 
z"/>
<path fill="#EEEEEE" opacity="1.000000" stroke="none" 
	d="
M143.754608,212.774200 
	C141.089035,213.068466 139.963287,212.385117 140.053696,209.825943 
	C140.218109,205.172134 140.058014,200.507828 140.108231,195.848694 
	C140.140488,192.854950 138.929230,191.005020 135.774078,191.052322 
	C132.750275,191.097672 130.590256,192.420242 130.540710,195.757462 
	C130.459534,201.225342 130.518738,206.695312 130.518738,212.467072 
	C128.416000,212.467072 126.682846,212.467072 124.648544,212.467072 
	C124.648544,203.868912 124.648544,195.293579 124.648544,185.957306 
	C126.791000,186.306686 128.678894,186.614563 130.566788,186.922424 
	C130.531342,187.382751 130.495895,187.843063 130.460449,188.303391 
	C131.589172,187.742325 132.685104,187.099014 133.852036,186.633820 
	C140.410294,184.019302 145.744385,187.231598 146.089569,194.216599 
	C146.352112,199.529510 146.287659,204.865967 146.131348,210.184952 
	C146.105469,211.065796 144.860840,211.910797 143.754608,212.774200 
z"/>
<path fill="#F3F3F3" opacity="1.000000" stroke="none" 
	d="
M109.220200,201.918686 
	C106.980408,201.918686 105.202911,201.918686 103.312790,201.918686 
	C105.258347,207.768600 109.083992,209.671860 113.867821,206.774597 
	C116.508018,205.175598 117.856934,205.396194 119.219284,207.870209 
	C116.059265,212.867493 110.085030,214.499664 104.183250,211.978027 
	C98.202332,209.422577 95.381279,202.368027 97.429947,195.090210 
	C99.294228,188.467392 104.694984,184.981033 111.402199,186.070694 
	C117.422531,187.048767 120.335403,192.241562 119.897430,201.918686 
	C116.520988,201.918686 113.101738,201.918686 109.220200,201.918686 
M111.275223,197.045685 
	C113.708473,197.304871 115.106529,196.242508 113.483963,194.100693 
	C112.370415,192.630783 109.787109,190.878082 108.468582,191.274323 
	C106.279648,191.932114 104.579491,194.216385 102.673454,195.815552 
	C102.954453,196.225647 103.235451,196.635742 103.516449,197.045837 
	C105.806160,197.045837 108.095879,197.045837 111.275223,197.045685 
z"/>
<path fill="#F1F1F1" opacity="1.000000" stroke="none" 
	d="
M168.129913,211.998352 
	C166.909821,211.816513 165.778854,211.870407 164.774475,212.254974 
	C157.786575,214.930450 152.182861,211.502914 151.936340,204.135101 
	C151.742645,198.346329 151.897461,192.545883 151.897461,186.448761 
	C153.910385,186.448761 155.633835,186.448761 157.941574,186.448761 
	C157.941574,191.730911 157.993210,196.997925 157.922318,202.263290 
	C157.879303,205.458557 158.579575,208.096863 162.425934,207.918213 
	C165.889862,207.757294 167.833328,205.949600 167.721619,202.148758 
	C167.570694,197.013275 167.684113,191.870056 167.684113,186.437531 
	C169.706833,186.437531 171.444183,186.437531 173.492035,186.437531 
	C173.492035,194.972900 173.492035,203.538483 173.492035,212.708374 
	C171.710693,212.598618 169.994156,212.492874 168.129913,211.998352 
z"/>
<path fill="#080808" opacity="1.000000" stroke="none" 
	d="
M110.830406,197.045761 
	C108.095879,197.045837 105.806160,197.045837 103.516449,197.045837 
	C103.235451,196.635742 102.954453,196.225647 102.673454,195.815552 
	C104.579491,194.216385 106.279648,191.932114 108.468582,191.274323 
	C109.787109,190.878082 112.370415,192.630783 113.483963,194.100693 
	C115.106529,196.242508 113.708473,197.304871 110.830406,197.045761 
z"/>
</svg>