<svg version="1.1" id="Layer_1" xmlns="http://www.w3.org/2000/svg" xmlns:xlink="http://www.w3.org/1999/xlink" x="0px" y="0px"
	 width="100%" viewBox="0 0 200 200" enable-background="new 0 0 200 200" xml:space="preserve">
<path fill="#FFFFFF" opacity="1.000000" stroke="none" 
	d="
M136.000000,201.000000 
	C90.666672,201.000000 45.833340,201.000000 1.000006,201.000000 
	C1.000004,134.333344 1.000004,67.666679 1.000002,1.000015 
	C67.666656,1.000010 134.333313,1.000010 200.999969,1.000005 
	C200.999985,67.666649 200.999985,134.333298 201.000000,200.999969 
	C179.500000,201.000000 158.000000,201.000000 136.000000,201.000000 
M70.682663,50.998352 
	C70.182716,50.998386 69.682365,51.011688 69.182892,50.996342 
	C65.342079,50.878330 61.126728,50.962616 61.202408,56.072083 
	C61.277721,61.156967 65.540115,61.022026 69.344162,61.016418 
	C90.509399,60.985226 111.674698,61.006229 132.839981,60.991234 
	C134.333649,60.990177 136.081085,61.300404 137.256302,60.647865 
	C138.709885,59.840786 140.398361,58.310219 140.670364,56.847675 
	C140.936523,55.416542 139.976547,53.066021 138.779282,52.231087 
	C137.320221,51.213581 135.052597,51.052418 133.132782,51.045353 
	C112.634399,50.969921 92.135628,50.998425 70.682663,50.998352 
M95.500000,81.001389 
	C108.327888,81.001205 121.155914,80.966782 133.983566,81.022110 
	C137.739594,81.038307 140.986252,80.118462 140.826355,75.755638 
	C140.679459,71.748268 137.520599,70.963913 133.988068,70.972160 
	C111.997559,71.023483 90.006798,71.023636 68.016289,70.972015 
	C64.484383,70.963715 61.323166,71.745461 61.172905,75.751007 
	C61.009319,80.111832 64.253113,81.049927 68.011436,81.021950 
	C76.840515,80.956223 85.670425,81.001213 95.500000,81.001389 
M97.500000,90.998611 
	C87.669952,90.998627 77.839569,91.045456 68.010048,90.973724 
	C64.488388,90.948021 61.311081,91.720078 61.171829,95.748482 
	C61.021366,100.101280 64.251457,101.029823 68.012054,101.022484 
	C90.004608,100.979553 111.997337,100.979553 133.989883,101.022476 
	C137.751343,101.029816 140.980179,100.098389 140.828339,95.746429 
	C140.687790,91.718262 137.508743,90.954201 133.987976,90.973724 
	C122.158974,91.039360 110.329369,90.998634 97.500000,90.998611 
M83.949738,132.562759 
	C83.949738,129.762115 83.949738,126.961472 83.949738,124.156906 
	C80.380562,122.823402 78.518417,123.656281 77.513229,127.286766 
	C76.382538,131.370529 74.620781,135.279572 72.722168,140.366882 
	C70.900009,135.250793 69.256462,131.332733 68.132919,127.270836 
	C67.157570,123.744743 65.352806,122.791969 61.870846,124.152100 
	C61.870846,130.346313 61.811886,136.496002 61.942814,142.641663 
	C61.959858,143.441696 62.954571,144.220917 63.496433,145.009781 
	C64.004959,144.192200 64.921211,143.390045 64.952843,142.554382 
	C65.106148,138.505112 65.022011,134.446823 65.022011,130.391739 
	C67.250557,134.206100 68.532539,138.232910 70.111725,142.139572 
	C70.570084,143.273468 71.879379,144.063400 72.798599,145.011002 
	C73.583969,144.101074 74.659653,143.312943 75.101822,142.259033 
	C76.597137,138.695007 77.867859,135.036728 79.224434,131.414490 
	C79.516243,131.483170 79.808044,131.551834 80.099854,131.620514 
	C80.099854,136.027298 80.099854,140.434082 80.099854,144.840866 
	C80.583786,145.081467 81.067719,145.322067 81.551659,145.562653 
	C82.350868,144.384033 83.682007,143.272430 83.840698,142.013092 
	C84.192009,139.225159 83.954178,136.363007 83.949738,132.562759 
M88.163155,138.996597 
	C89.207909,143.395859 92.102997,145.490036 96.497284,145.156693 
	C98.333168,145.017441 100.107315,144.064255 101.909531,143.481140 
	C101.758850,142.987518 101.608162,142.493912 101.457474,142.000290 
	C98.071777,141.430527 93.097908,144.654312 91.816689,137.880157 
	C95.367439,137.880157 98.615692,137.880157 101.957726,137.880157 
	C102.703110,133.849884 102.015038,130.210266 98.392532,129.328156 
	C95.831375,128.704498 92.185753,129.739502 89.995201,131.352585 
	C88.486816,132.463318 88.640320,135.830856 88.163155,138.996597 
M134.070786,141.810364 
	C130.263107,143.109360 128.792877,141.529770 128.924072,137.751770 
	C129.021210,134.954391 128.943176,132.150940 128.943176,129.350189 
	C128.562256,129.010468 128.181351,128.670746 127.800430,128.331024 
	C126.914398,129.282303 125.374115,130.165375 125.266472,131.197800 
	C124.958214,134.154343 125.033928,137.190735 125.324326,140.159973 
	C125.703110,144.032974 128.147614,145.588028 131.933228,145.141724 
	C134.324249,144.859818 136.712067,144.550858 139.758224,144.172424 
	C139.758224,140.139496 139.908066,135.523148 139.625580,130.933411 
	C139.572235,130.066742 137.799210,129.305923 136.748474,128.437378 
	C135.960617,133.506271 135.358673,137.379150 134.070786,141.810364 
M107.270706,144.999054 
	C107.967148,144.023468 109.094940,143.120117 109.272850,142.057693 
	C109.679756,139.627731 109.214119,136.997177 109.908134,134.690369 
	C110.317734,133.328888 112.256859,131.592270 113.523773,131.579529 
	C114.602242,131.568695 116.365807,133.647614 116.649818,135.041702 
	C117.169151,137.590820 116.720375,140.323669 116.898354,142.964874 
	C116.945755,143.668304 117.803116,144.317184 118.288612,144.991104 
	C118.907555,144.285812 120.013374,143.611053 120.059883,142.869843 
	C120.246277,139.899185 120.177116,136.905182 120.066261,133.924881 
	C119.903717,129.554596 117.218956,128.341904 113.333656,128.792542 
	C111.034355,129.059250 108.738480,129.355438 106.375992,129.646378 
	C106.375992,134.357635 106.375992,139.609512 107.270706,144.999054 
z"/>
<path fill="#010101" opacity="1.000000" stroke="none" 
	d="
M71.159821,50.998371 
	C92.135628,50.998425 112.634399,50.969921 133.132782,51.045353 
	C135.052597,51.052418 137.320221,51.213581 138.779282,52.231087 
	C139.976547,53.066021 140.936523,55.416542 140.670364,56.847675 
	C140.398361,58.310219 138.709885,59.840786 137.256302,60.647865 
	C136.081085,61.300404 134.333649,60.990177 132.839981,60.991234 
	C111.674698,61.006229 90.509399,60.985226 69.344162,61.016418 
	C65.540115,61.022026 61.277721,61.156967 61.202408,56.072083 
	C61.126728,50.962616 65.342079,50.878330 69.182892,50.996342 
	C69.682365,51.011688 70.182716,50.998386 71.159821,50.998371 
z"/>
<path fill="#010101" opacity="1.000000" stroke="none" 
	d="
M95.000000,81.001389 
	C85.670425,81.001213 76.840515,80.956223 68.011436,81.021950 
	C64.253113,81.049927 61.009319,80.111832 61.172905,75.751007 
	C61.323166,71.745461 64.484383,70.963715 68.016289,70.972015 
	C90.006798,71.023636 111.997559,71.023483 133.988068,70.972160 
	C137.520599,70.963913 140.679459,71.748268 140.826355,75.755638 
	C140.986252,80.118462 137.739594,81.038307 133.983566,81.022110 
	C121.155914,80.966782 108.327888,81.001205 95.000000,81.001389 
z"/>
<path fill="#010101" opacity="1.000000" stroke="none" 
	d="
M98.000000,90.998611 
	C110.329369,90.998634 122.158974,91.039360 133.987976,90.973724 
	C137.508743,90.954201 140.687790,91.718262 140.828339,95.746429 
	C140.980179,100.098389 137.751343,101.029816 133.989883,101.022476 
	C111.997337,100.979553 90.004608,100.979553 68.012054,101.022484 
	C64.251457,101.029823 61.021366,100.101280 61.171829,95.748482 
	C61.311081,91.720078 64.488388,90.948021 68.010048,90.973724 
	C77.839569,91.045456 87.669952,90.998627 98.000000,90.998611 
z"/>
<path fill="#0C0C0C" opacity="1.000000" stroke="none" 
	d="
M83.953178,133.046936 
	C83.954178,136.363007 84.192009,139.225159 83.840698,142.013092 
	C83.682007,143.272430 82.350868,144.384033 81.551659,145.562653 
	C81.067719,145.322067 80.583786,145.081467 80.099854,144.840866 
	C80.099854,140.434082 80.099854,136.027298 80.099854,131.620514 
	C79.808044,131.551834 79.516243,131.483170 79.224434,131.414490 
	C77.867859,135.036728 76.597137,138.695007 75.101822,142.259033 
	C74.659653,143.312943 73.583969,144.101074 72.798599,145.011002 
	C71.879379,144.063400 70.570084,143.273468 70.111725,142.139572 
	C68.532539,138.232910 67.250557,134.206100 65.022011,130.391739 
	C65.022011,134.446823 65.106148,138.505112 64.952843,142.554382 
	C64.921211,143.390045 64.004959,144.192200 63.496433,145.009781 
	C62.954571,144.220917 61.959858,143.441696 61.942814,142.641663 
	C61.811886,136.496002 61.870846,130.346313 61.870846,124.152100 
	C65.352806,122.791969 67.157570,123.744743 68.132919,127.270836 
	C69.256462,131.332733 70.900009,135.250793 72.722168,140.366882 
	C74.620781,135.279572 76.382538,131.370529 77.513229,127.286766 
	C78.518417,123.656281 80.380562,122.823402 83.949738,124.156906 
	C83.949738,126.961472 83.949738,129.762115 83.953178,133.046936 
z"/>
<path fill="#1B1B1B" opacity="1.000000" stroke="none" 
	d="
M88.107117,138.593170 
	C88.640320,135.830856 88.486816,132.463318 89.995201,131.352585 
	C92.185753,129.739502 95.831375,128.704498 98.392532,129.328156 
	C102.015038,130.210266 102.703110,133.849884 101.957726,137.880157 
	C98.615692,137.880157 95.367439,137.880157 91.816689,137.880157 
	C93.097908,144.654312 98.071777,141.430527 101.457474,142.000290 
	C101.608162,142.493912 101.758850,142.987518 101.909531,143.481140 
	C100.107315,144.064255 98.333168,145.017441 96.497284,145.156693 
	C92.102997,145.490036 89.207909,143.395859 88.107117,138.593170 
z"/>
<path fill="#1F1F1F" opacity="1.000000" stroke="none" 
	d="
M134.413757,141.531189 
	C135.358673,137.379150 135.960617,133.506271 136.748474,128.437378 
	C137.799210,129.305923 139.572235,130.066742 139.625580,130.933411 
	C139.908066,135.523148 139.758224,140.139496 139.758224,144.172424 
	C136.712067,144.550858 134.324249,144.859818 131.933228,145.141724 
	C128.147614,145.588028 125.703110,144.032974 125.324326,140.159973 
	C125.033928,137.190735 124.958214,134.154343 125.266472,131.197800 
	C125.374115,130.165375 126.914398,129.282303 127.800430,128.331024 
	C128.181351,128.670746 128.562256,129.010468 128.943176,129.350189 
	C128.943176,132.150940 129.021210,134.954391 128.924072,137.751770 
	C128.792877,141.529770 130.263107,143.109360 134.413757,141.531189 
z"/>
<path fill="#060606" opacity="1.000000" stroke="none" 
	d="
M106.823349,144.930222 
	C106.375992,139.609512 106.375992,134.357635 106.375992,129.646378 
	C108.738480,129.355438 111.034355,129.059250 113.333656,128.792542 
	C117.218956,128.341904 119.903717,129.554596 120.066261,133.924881 
	C120.177116,136.905182 120.246277,139.899185 120.059883,142.869843 
	C120.013374,143.611053 118.907555,144.285812 118.288612,144.991104 
	C117.803116,144.317184 116.945755,143.668304 116.898354,142.964874 
	C116.720375,140.323669 117.169151,137.590820 116.649818,135.041702 
	C116.365807,133.647614 114.602242,131.568695 113.523773,131.579529 
	C112.256859,131.592270 110.317734,133.328888 109.908134,134.690369 
	C109.214119,136.997177 109.679756,139.627731 109.272850,142.057693 
	C109.094940,143.120117 107.967148,144.023468 106.823349,144.930222 
z"/>
</svg>